<?xml version="1.0" encoding="utf-8"?>
<!-- Generator: Adobe Illustrator 16.0.0, SVG Export Plug-In . SVG Version: 6.00 Build 0)  -->
<!DOCTYPE svg PUBLIC "-//W3C//DTD SVG 1.1//EN" "http://www.w3.org/Graphics/SVG/1.1/DTD/svg11.dtd">
<svg version="1.1" id="Layer_1" xmlns="http://www.w3.org/2000/svg" xmlns:xlink="http://www.w3.org/1999/xlink" x="0px" y="0px"
	 width="188.033px" height="42.281px" viewBox="-26.792 0 188.033 42.281" enable-background="new -26.792 0 188.033 42.281"
	 xml:space="preserve">
<g>
	<path fill="#FFFFFF" d="M0.09,14.905c1-0.167,2.309-0.309,3.975-0.309c2.048,0,3.547,0.476,4.5,1.332
		c0.881,0.762,1.405,1.928,1.405,3.357c0,1.451-0.429,2.595-1.238,3.427c-1.096,1.168-2.88,1.764-4.905,1.764
		c-0.619,0-1.189-0.023-1.667-0.145v6.428H0.09V14.905z M2.16,22.643c0.453,0.118,1.024,0.167,1.714,0.167
		c2.5,0,4.023-1.214,4.023-3.428c0-2.12-1.5-3.143-3.785-3.143c-0.905,0-1.595,0.07-1.953,0.167L2.16,22.643L2.16,22.643z"/>
	<path fill="#FFFFFF" d="M14.538,14.715h2.072v14.308h6.856v1.738h-8.928V14.715z"/>
	<path fill="#FFFFFF" d="M30.154,25.714l-1.667,5.047h-2.143l5.452-16.046h2.5l5.476,16.046h-2.214l-1.715-5.047H30.154z
		 M35.416,24.095l-1.571-4.618c-0.358-1.048-0.596-1.999-0.834-2.928h-0.048c-0.238,0.951-0.5,1.928-0.809,2.904l-1.572,4.642
		H35.416z"/>
	<path fill="#FFFFFF" d="M45.127,16.477h-4.88v-1.762h11.88v1.762h-4.904v14.284h-2.096V16.477z"/>
	<path fill="#FFFFFF" d="M56.506,25.714l-1.667,5.047h-2.143l5.452-16.046h2.501l5.475,16.046H63.91l-1.714-5.047H56.506z
		 M61.767,24.095l-1.571-4.618c-0.357-1.048-0.596-1.999-0.833-2.928h-0.048c-0.238,0.951-0.5,1.928-0.809,2.904l-1.572,4.642
		H61.767z"/>
	<path fill="#FFFFFF" d="M70.265,14.715h2.071v14.308h6.857v1.738h-8.928V14.715z"/>
	<path fill="#FFFFFF" d="M84.856,30.761v-6.811l-5.071-9.236h2.356l2.264,4.428c0.617,1.215,1.094,2.19,1.596,3.31h0.047
		c0.451-1.048,0.998-2.095,1.617-3.31l2.311-4.428h2.357l-5.379,9.212v6.834H84.856z"/>
	<path fill="#FFFFFF" d="M99.806,16.477h-4.883v-1.762h11.881v1.762h-4.904v14.284h-2.094V16.477z"/>
	<path fill="#FFFFFF" d="M112.444,14.715v16.046h-2.07V14.715H112.444z"/>
	<path fill="#FFFFFF" d="M129.063,30.238c-0.766,0.381-2.287,0.762-4.24,0.762c-4.523,0-7.926-2.858-7.926-8.119
		c0-5.023,3.4-8.427,8.379-8.427c1.998,0,3.262,0.428,3.811,0.715l-0.502,1.688c-0.783-0.38-1.904-0.665-3.238-0.665
		c-3.76,0-6.26,2.403-6.26,6.618c0,3.928,2.262,6.45,6.168,6.45c1.26,0,2.547-0.26,3.381-0.666L129.063,30.238z"/>
	<path fill="#FFFFFF" d="M133.157,28.237c0.926,0.572,2.283,1.048,3.713,1.048c2.119,0,3.354-1.117,3.354-2.738
		c0-1.5-0.855-2.356-3.021-3.19c-2.619-0.927-4.238-2.284-4.238-4.545c0-2.501,2.072-4.357,5.189-4.357
		c1.643,0,2.834,0.381,3.549,0.785l-0.57,1.69c-0.527-0.286-1.598-0.761-3.049-0.761c-2.191,0-3.023,1.31-3.023,2.403
		c0,1.5,0.977,2.238,3.191,3.095c2.713,1.047,4.092,2.357,4.092,4.713c0,2.479-1.83,4.621-5.617,4.621
		c-1.547,0-3.236-0.451-4.096-1.022L133.157,28.237z"/>
	<g>
		<path fill="#FFFFFF" d="M152.675,15.96h-1.18v-1.2h3.668v1.2h-1.191v5.482h-1.297V15.96L152.675,15.96z"/>
		<path fill="#FFFFFF" d="M159.931,19.103c-0.025-0.636-0.08-1.498-0.057-2.21h-0.033c-0.117,0.712-0.295,1.536-0.426,2.051
			l-0.574,2.389h-0.922l-0.555-2.349c-0.129-0.536-0.309-1.369-0.406-2.091h-0.029c-0.02,0.722-0.059,1.564-0.1,2.229l-0.109,2.32
			h-1.119l0.484-6.683h1.367l0.537,2.419c0.189,0.843,0.355,1.587,0.475,2.34h0.021c0.098-0.743,0.246-1.497,0.426-2.34l0.525-2.419
			h1.369l0.404,6.683h-1.16L159.931,19.103z"/>
	</g>
	<g>
		<g enable-background="new    ">
			<path fill="#FFFFFF" d="M-20.183,25.894l-4.078,4.741v0.082h7.442v1.574h-9.944v-1.127l4.475-5.222l-4.244-5.139v-1.227h9.151
				v1.575h-6.629v0.066L-20.183,25.894z"/>
		</g>
		<g enable-background="new    ">
			<path fill="#FFFFFF" d="M-16.552,20.388l4.079-4.741v-0.083l-7.442,0v-1.575l9.945,0v1.128l-4.475,5.221l4.241,5.139v1.227
				l-9.149-0.002v-1.574h6.629v-0.065L-16.552,20.388z"/>
		</g>
	</g>
</g>
</svg>
