<?xml version="1.0" encoding="utf-8"?>
<!-- Generator: Adobe Illustrator 16.0.0, SVG Export Plug-In . SVG Version: 6.00 Build 0)  -->
<!DOCTYPE svg PUBLIC "-//W3C//DTD SVG 1.1//EN" "http://www.w3.org/Graphics/SVG/1.1/DTD/svg11.dtd">
<svg version="1.1" id="Layer_1" xmlns="http://www.w3.org/2000/svg" xmlns:xlink="http://www.w3.org/1999/xlink" x="0px" y="0px"
	 width="200.033px" height="50.281px" viewBox="0 0 1200 300" enable-background="new 0 0 1200 300" xml:space="preserve">
<g>
	<g>
		<path fill="#2E3B42" d="M376.613,197.113l-65.814-69.298h-0.403v69.298h-23.591v-97.044h27.478l65.815,69.434h0.536v-69.434h23.59
			v97.044H376.613z"/>
		<path fill="#2E3B42" d="M502.332,199.931c-36.326,0-58.708-15.015-58.708-35.521v-64.341h23.588v61.122
			c0,11.933,12.736,19.976,35.12,19.976c22.383,0,35.118-8.179,35.118-19.976v-61.122h23.59v64.341
			C561.039,184.916,538.656,199.931,502.332,199.931z"/>
		<path fill="#2E3B42" d="M719.466,197.113v-68.895h-0.403l-46.244,55.625l-46.242-55.625h-0.404v68.895h-23.59v-97.044h27.61
			l42.626,51.472l42.627-51.472h27.61v97.044H719.466z"/>
		<path fill="#2E3B42" d="M840.493,118.701v78.412h-23.591v-78.412h-46.246v-18.632h116.081v18.632H840.493z"/>
		<path fill="#2E3B42" d="M1006.426,197.113l-23.858-34.312H937.93v34.312h-23.59v-97.044h79.486
			c22.118,0,36.594,12.868,36.594,31.768c0,15.281-7.506,25.202-22.117,29.222l24.662,36.055H1006.426z M1007.097,131.166
			c0-7.37-5.897-12.465-15.952-12.465H937.93v25.468h53.351C1001.334,144.169,1007.097,139.209,1007.097,131.166z"/>
		<path fill="#2E3B42" d="M1156.141,197.113l-11.127-20.909h-62.193l-11.127,20.909h-23.859l51.605-97.044h29.089L1180,197.113
			H1156.141z M1113.783,117.765l-21.313,39.809h42.627L1113.783,117.765z"/>
	</g>
	<g>
		<polygon fill="#4495D1" points="30,125.657 93.974,88.724 30,51.788 		"/>
		<polygon fill="#5DA9DD" points="32.439,129.574 96.412,166.508 96.412,92.64 		"/>
		<polygon fill="#75BEE9" points="100.498,166.509 164.473,129.575 100.498,92.64 		"/>
		<polygon fill="#BBD976" points="167.251,133.491 103.278,170.425 167.251,207.36 		"/>
		<polygon fill="#A3CF62" points="235.287,170.412 171.337,133.491 171.337,207.333 		"/>
		<polygon fill="#8BC751" points="237.762,248.212 237.76,174.37 173.81,211.29 		"/>
		<polygon fill="#65963B" points="237.76,51.789 173.787,88.723 237.762,125.658 		"/>
		<polygon fill="#33729F" points="30,248.212 93.974,211.278 30,174.343 		"/>
	</g>
</g>
<text transform="matrix(1 0 0 1 610.8203 252.9385)" font-family="'Helvetica'" font-size="48">Powered by Platalytics Inc.</text>
</svg>
